<svg width="1440" height="137" viewBox="0 0 1440 137" fill="none" xmlns="http://www.w3.org/2000/svg">
<path d="M77.4649 109.292C41.4725 137.944 1.4809 139.199 -28.0129 135.507C-57.5066 131.814 -89 0 -89 0H1460.17C1458.26 27.5915 1456.02 64.757 1454.99 93.1678C1460.28 101.237 1462.28 110.679 1460.17 121.476C1454.35 151.227 1453.69 129.263 1454.99 93.1678C1427.75 51.5678 1313.31 46.4748 1226.22 80.4918C1122.24 121.107 914.788 73.8457 914.788 73.8457C914.788 73.8457 690.335 43.1997 583.858 69.0457C490.694 91.66 325.912 76.061 261.926 69.0457C197.939 62.0304 122.455 73.4764 77.4649 109.292Z" fill="url(#paint0_linear_2_507)"/>
<defs>
<linearGradient id="paint0_linear_2_507" x1="-89" y1="68.5" x2="1461" y2="68.5" gradientUnits="userSpaceOnUse">
<stop stop-color="#007AFF"/>
<stop offset="0.5" stop-color="#00E1FF"/>
<stop offset="1" stop-color="#00D26A"/>
</linearGradient>
</defs>
</svg>
